solid CATIA STL
  facet normal  1.000000e+00  0.000000e+00  0.000000e+00
    outer loop
      vertex  7.200000e+03 -1.050000e+03  4.200000e+03
      vertex  7.200000e+03 -1.136868e-13  4.200000e+03
      vertex  7.200000e+03 -1.050000e+03  6.400000e+03
    endloop
  endfacet
  facet normal  1.000000e+00  -0.000000e+00  0.000000e+00
    outer loop
      vertex  7.200000e+03 -1.050000e+03  6.400000e+03
      vertex  7.200000e+03 -1.136868e-13  4.200000e+03
      vertex  7.200000e+03  0.000000e+00  6.400000e+03
    endloop
  endfacet
  facet normal  0.000000e+00  0.000000e+00 -9.999999e-01
    outer loop
      vertex  6.000000e+03 -1.050000e+03  4.200000e+03
      vertex  6.000000e+03  1.136868e-13  4.200000e+03
      vertex  7.200000e+03 -1.050000e+03  4.200000e+03
    endloop
  endfacet
  facet normal  0.000000e+00  0.000000e+00 -9.999999e-01
    outer loop
      vertex  7.200000e+03 -1.050000e+03  4.200000e+03
      vertex  6.000000e+03  1.136868e-13  4.200000e+03
      vertex  7.200000e+03 -1.136868e-13  4.200000e+03
    endloop
  endfacet
  facet normal -1.000000e+00  0.000000e+00  0.000000e+00
    outer loop
      vertex  6.000000e+03 -1.050000e+03  4.200000e+03
      vertex  6.000000e+03 -1.050000e+03  6.400000e+03
      vertex  6.000000e+03  1.136868e-13  4.200000e+03
    endloop
  endfacet
  facet normal -1.000000e+00  0.000000e+00  0.000000e+00
    outer loop
      vertex  6.000000e+03  1.136868e-13  4.200000e+03
      vertex  6.000000e+03 -1.050000e+03  6.400000e+03
      vertex  6.000000e+03  0.000000e+00  6.400000e+03
    endloop
  endfacet
  facet normal  0.000000e+00  0.000000e+00  9.999999e-01
    outer loop
      vertex  6.000000e+03 -1.050000e+03  6.400000e+03
      vertex  7.200000e+03 -1.050000e+03  6.400000e+03
      vertex  6.000000e+03  0.000000e+00  6.400000e+03
    endloop
  endfacet
  facet normal  -0.000000e+00  0.000000e+00  9.999999e-01
    outer loop
      vertex  6.000000e+03  0.000000e+00  6.400000e+03
      vertex  7.200000e+03 -1.050000e+03  6.400000e+03
      vertex  7.200000e+03  0.000000e+00  6.400000e+03
    endloop
  endfacet
  facet normal  1.894781e-16  1.000000e+00  5.167584e-17
    outer loop
      vertex  6.000000e+03  1.136868e-13  4.200000e+03
      vertex  6.000000e+03  0.000000e+00  6.400000e+03
      vertex  7.200000e+03 -1.136868e-13  4.200000e+03
    endloop
  endfacet
  facet normal  0.000000e+00  1.000000e+00 -5.167584e-17
    outer loop
      vertex  7.200000e+03 -1.136868e-13  4.200000e+03
      vertex  6.000000e+03  0.000000e+00  6.400000e+03
      vertex  7.200000e+03  0.000000e+00  6.400000e+03
    endloop
  endfacet
  facet normal  0.000000e+00 -1.000000e+00  0.000000e+00
    outer loop
      vertex  6.000000e+03 -1.050000e+03  4.200000e+03
      vertex  7.200000e+03 -1.050000e+03  4.200000e+03
      vertex  6.000000e+03 -1.050000e+03  6.400000e+03
    endloop
  endfacet
  facet normal  0.000000e+00 -1.000000e+00  0.000000e+00
    outer loop
      vertex  6.000000e+03 -1.050000e+03  6.400000e+03
      vertex  7.200000e+03 -1.050000e+03  4.200000e+03
      vertex  7.200000e+03 -1.050000e+03  6.400000e+03
    endloop
  endfacet
endsolid CATIA STL
