solid CATIA STL
  facet normal  0.000000e+00  1.000000e+00  0.000000e+00
    outer loop
      vertex  1.440000e+04 -1.000000e+03  8.200000e+02
      vertex  1.320000e+04 -1.000000e+03  8.200000e+02
      vertex  1.440000e+04 -1.000000e+03  6.850000e+03
    endloop
  endfacet
  facet normal  0.000000e+00  1.000000e+00  0.000000e+00
    outer loop
      vertex  1.440000e+04 -1.000000e+03  6.850000e+03
      vertex  1.320000e+04 -1.000000e+03  8.200000e+02
      vertex  1.320000e+04 -1.000000e+03  6.850000e+03
    endloop
  endfacet
  facet normal -1.000000e+00  0.000000e+00  0.000000e+00
    outer loop
      vertex  1.440000e+04  0.000000e+00  8.200000e+02
      vertex  1.440000e+04 -1.000000e+03  8.200000e+02
      vertex  1.440000e+04  0.000000e+00  6.850000e+03
    endloop
  endfacet
  facet normal -1.000000e+00  -0.000000e+00  0.000000e+00
    outer loop
      vertex  1.440000e+04  0.000000e+00  6.850000e+03
      vertex  1.440000e+04 -1.000000e+03  8.200000e+02
      vertex  1.440000e+04 -1.000000e+03  6.850000e+03
    endloop
  endfacet
  facet normal  1.515825e-15  1.000000e+00  0.000000e+00
    outer loop
      vertex  1.440000e+04  0.000000e+00  8.200000e+02
      vertex  1.440000e+04  0.000000e+00  6.850000e+03
      vertex  1.500000e+04 -9.094947e-13  8.200000e+02
    endloop
  endfacet
  facet normal  0.000000e+00  1.000000e+00 -1.508283e-16
    outer loop
      vertex  1.500000e+04 -9.094947e-13  8.200000e+02
      vertex  1.440000e+04  0.000000e+00  6.850000e+03
      vertex  1.500000e+04  0.000000e+00  6.850000e+03
    endloop
  endfacet
  facet normal  0.000000e+00  0.000000e+00 -1.000000e+00
    outer loop
      vertex  1.440000e+04 -2.520000e+03  8.200000e+02
      vertex  1.440000e+04 -1.000000e+03  8.200000e+02
      vertex  1.500000e+04 -2.520000e+03  8.200000e+02
    endloop
  endfacet
  facet normal  0.000000e+00  0.000000e+00 -1.000000e+00
    outer loop
      vertex  1.500000e+04 -2.520000e+03  8.200000e+02
      vertex  1.440000e+04 -1.000000e+03  8.200000e+02
      vertex  1.440000e+04  0.000000e+00  8.200000e+02
    endloop
  endfacet
  facet normal  0.000000e+00  0.000000e+00 -1.000000e+00
    outer loop
      vertex  1.500000e+04 -2.520000e+03  8.200000e+02
      vertex  1.440000e+04  0.000000e+00  8.200000e+02
      vertex  1.500000e+04 -9.094947e-13  8.200000e+02
    endloop
  endfacet
  facet normal  0.000000e+00  0.000000e+00 -1.000000e+00
    outer loop
      vertex  1.440000e+04 -1.000000e+03  8.200000e+02
      vertex  1.440000e+04 -2.520000e+03  8.200000e+02
      vertex  1.320000e+04 -1.000000e+03  8.200000e+02
    endloop
  endfacet
  facet normal  0.000000e+00  0.000000e+00 -1.000000e+00
    outer loop
      vertex  1.320000e+04 -1.000000e+03  8.200000e+02
      vertex  1.440000e+04 -2.520000e+03  8.200000e+02
      vertex  1.440000e+04 -4.530000e+03  8.200000e+02
    endloop
  endfacet
  facet normal  -0.000000e+00  0.000000e+00 -9.999999e-01
    outer loop
      vertex  1.320000e+04 -1.000000e+03  8.200000e+02
      vertex  1.440000e+04 -4.530000e+03  8.200000e+02
      vertex  1.320000e+04 -5.200000e+03  8.200000e+02
    endloop
  endfacet
  facet normal  0.000000e+00  0.000000e+00 -1.000000e+00
    outer loop
      vertex  1.320000e+04 -5.200000e+03  8.200000e+02
      vertex  1.440000e+04 -4.530000e+03  8.200000e+02
      vertex  1.500000e+04 -4.530000e+03  8.200000e+02
    endloop
  endfacet
  facet normal  0.000000e+00  -0.000000e+00 -1.000000e+00
    outer loop
      vertex  1.320000e+04 -5.200000e+03  8.200000e+02
      vertex  1.500000e+04 -4.530000e+03  8.200000e+02
      vertex  1.500000e+04 -5.200000e+03  8.200000e+02
    endloop
  endfacet
  facet normal -1.000000e+00  0.000000e+00  0.000000e+00
    outer loop
      vertex  1.320000e+04 -5.200000e+03  8.200000e+02
      vertex  1.320000e+04 -5.200000e+03  6.850000e+03
      vertex  1.320000e+04 -1.000000e+03  8.200000e+02
    endloop
  endfacet
  facet normal -1.000000e+00  0.000000e+00  0.000000e+00
    outer loop
      vertex  1.320000e+04 -1.000000e+03  8.200000e+02
      vertex  1.320000e+04 -5.200000e+03  6.850000e+03
      vertex  1.320000e+04 -1.000000e+03  6.850000e+03
    endloop
  endfacet
  facet normal  0.000000e+00  0.000000e+00  1.000000e+00
    outer loop
      vertex  1.440000e+04 -2.520000e+03  6.850000e+03
      vertex  1.500000e+04 -2.520000e+03  6.850000e+03
      vertex  1.440000e+04 -1.000000e+03  6.850000e+03
    endloop
  endfacet
  facet normal  0.000000e+00  0.000000e+00  1.000000e+00
    outer loop
      vertex  1.440000e+04 -2.520000e+03  6.850000e+03
      vertex  1.440000e+04 -1.000000e+03  6.850000e+03
      vertex  1.320000e+04 -1.000000e+03  6.850000e+03
    endloop
  endfacet
  facet normal  0.000000e+00  0.000000e+00  9.999999e-01
    outer loop
      vertex  1.440000e+04 -2.520000e+03  6.850000e+03
      vertex  1.320000e+04 -1.000000e+03  6.850000e+03
      vertex  1.320000e+04 -5.200000e+03  6.850000e+03
    endloop
  endfacet
  facet normal  0.000000e+00  0.000000e+00  1.000000e+00
    outer loop
      vertex  1.440000e+04 -2.520000e+03  6.850000e+03
      vertex  1.320000e+04 -5.200000e+03  6.850000e+03
      vertex  1.440000e+04 -4.530000e+03  6.850000e+03
    endloop
  endfacet
  facet normal  0.000000e+00  0.000000e+00  1.000000e+00
    outer loop
      vertex  1.500000e+04 -5.200000e+03  6.850000e+03
      vertex  1.500000e+04 -4.530000e+03  6.850000e+03
      vertex  1.320000e+04 -5.200000e+03  6.850000e+03
    endloop
  endfacet
  facet normal  0.000000e+00  0.000000e+00  1.000000e+00
    outer loop
      vertex  1.320000e+04 -5.200000e+03  6.850000e+03
      vertex  1.500000e+04 -4.530000e+03  6.850000e+03
      vertex  1.440000e+04 -4.530000e+03  6.850000e+03
    endloop
  endfacet
  facet normal  0.000000e+00  0.000000e+00  1.000000e+00
    outer loop
      vertex  1.500000e+04 -2.520000e+03  6.850000e+03
      vertex  1.500000e+04  0.000000e+00  6.850000e+03
      vertex  1.440000e+04 -1.000000e+03  6.850000e+03
    endloop
  endfacet
  facet normal  0.000000e+00  0.000000e+00  1.000000e+00
    outer loop
      vertex  1.440000e+04 -1.000000e+03  6.850000e+03
      vertex  1.500000e+04  0.000000e+00  6.850000e+03
      vertex  1.440000e+04  0.000000e+00  6.850000e+03
    endloop
  endfacet
  facet normal  0.000000e+00 -1.000000e+00  0.000000e+00
    outer loop
      vertex  1.500000e+04 -2.520000e+03  6.850000e+03
      vertex  1.440000e+04 -2.520000e+03  6.850000e+03
      vertex  1.500000e+04 -2.520000e+03  8.200000e+02
    endloop
  endfacet
  facet normal  0.000000e+00 -1.000000e+00  0.000000e+00
    outer loop
      vertex  1.500000e+04 -2.520000e+03  8.200000e+02
      vertex  1.440000e+04 -2.520000e+03  6.850000e+03
      vertex  1.440000e+04 -2.520000e+03  8.200000e+02
    endloop
  endfacet
  facet normal  1.000000e+00  -0.000000e+00  0.000000e+00
    outer loop
      vertex  1.440000e+04 -2.520000e+03  6.850000e+03
      vertex  1.440000e+04 -4.530000e+03  6.850000e+03
      vertex  1.440000e+04 -2.520000e+03  8.200000e+02
    endloop
  endfacet
  facet normal  1.000000e+00  0.000000e+00  0.000000e+00
    outer loop
      vertex  1.440000e+04 -2.520000e+03  8.200000e+02
      vertex  1.440000e+04 -4.530000e+03  6.850000e+03
      vertex  1.440000e+04 -4.530000e+03  8.200000e+02
    endloop
  endfacet
  facet normal  0.000000e+00  1.000000e+00  0.000000e+00
    outer loop
      vertex  1.440000e+04 -4.530000e+03  6.850000e+03
      vertex  1.500000e+04 -4.530000e+03  6.850000e+03
      vertex  1.440000e+04 -4.530000e+03  8.200000e+02
    endloop
  endfacet
  facet normal  0.000000e+00  1.000000e+00  0.000000e+00
    outer loop
      vertex  1.440000e+04 -4.530000e+03  8.200000e+02
      vertex  1.500000e+04 -4.530000e+03  6.850000e+03
      vertex  1.500000e+04 -4.530000e+03  8.200000e+02
    endloop
  endfacet
  facet normal  9.999999e-01  0.000000e+00  0.000000e+00
    outer loop
      vertex  1.500000e+04 -2.520000e+03  8.200000e+02
      vertex  1.500000e+04 -9.094947e-13  8.200000e+02
      vertex  1.500000e+04 -2.520000e+03  6.850000e+03
    endloop
  endfacet
  facet normal  9.999999e-01  -0.000000e+00  0.000000e+00
    outer loop
      vertex  1.500000e+04 -2.520000e+03  6.850000e+03
      vertex  1.500000e+04 -9.094947e-13  8.200000e+02
      vertex  1.500000e+04  0.000000e+00  6.850000e+03
    endloop
  endfacet
  facet normal  9.999999e-01  0.000000e+00  0.000000e+00
    outer loop
      vertex  1.500000e+04 -5.200000e+03  8.200000e+02
      vertex  1.500000e+04 -4.530000e+03  8.200000e+02
      vertex  1.500000e+04 -5.200000e+03  6.850000e+03
    endloop
  endfacet
  facet normal  9.999999e-01  -0.000000e+00  0.000000e+00
    outer loop
      vertex  1.500000e+04 -5.200000e+03  6.850000e+03
      vertex  1.500000e+04 -4.530000e+03  8.200000e+02
      vertex  1.500000e+04 -4.530000e+03  6.850000e+03
    endloop
  endfacet
  facet normal  0.000000e+00 -1.000000e+00  0.000000e+00
    outer loop
      vertex  1.320000e+04 -5.200000e+03  8.200000e+02
      vertex  1.500000e+04 -5.200000e+03  8.200000e+02
      vertex  1.320000e+04 -5.200000e+03  6.850000e+03
    endloop
  endfacet
  facet normal  0.000000e+00 -1.000000e+00  0.000000e+00
    outer loop
      vertex  1.320000e+04 -5.200000e+03  6.850000e+03
      vertex  1.500000e+04 -5.200000e+03  8.200000e+02
      vertex  1.500000e+04 -5.200000e+03  6.850000e+03
    endloop
  endfacet
endsolid CATIA STL
