solid CATIA STL
  facet normal  0.000000e+00  1.000000e+00  0.000000e+00
    outer loop
      vertex  9.979700e+04 -1.710000e+03  1.075400e+04
      vertex  9.852200e+04 -1.710000e+03  1.075400e+04
      vertex  9.979700e+04 -1.710000e+03  1.235400e+04
    endloop
  endfacet
  facet normal  0.000000e+00  1.000000e+00  0.000000e+00
    outer loop
      vertex  9.979700e+04 -1.710000e+03  1.235400e+04
      vertex  9.852200e+04 -1.710000e+03  1.075400e+04
      vertex  9.852200e+04 -1.710000e+03  1.235400e+04
    endloop
  endfacet
  facet normal  0.000000e+00 -1.000000e+00  -0.000000e+00
    outer loop
      vertex  9.979700e+04 -2.335000e+03  1.075400e+04
      vertex  9.979700e+04 -2.335000e+03  1.235400e+04
      vertex  9.852200e+04 -2.335000e+03  1.075400e+04
    endloop
  endfacet
  facet normal  0.000000e+00 -1.000000e+00  0.000000e+00
    outer loop
      vertex  9.852200e+04 -2.335000e+03  1.075400e+04
      vertex  9.979700e+04 -2.335000e+03  1.235400e+04
      vertex  9.852200e+04 -2.335000e+03  1.235400e+04
    endloop
  endfacet
  facet normal -1.000000e+00  0.000000e+00  0.000000e+00
    outer loop
      vertex  9.852200e+04 -1.710000e+03  1.235400e+04
      vertex  9.852200e+04 -1.710000e+03  1.075400e+04
      vertex  9.852200e+04 -2.335000e+03  1.235400e+04
    endloop
  endfacet
  facet normal -1.000000e+00  0.000000e+00  0.000000e+00
    outer loop
      vertex  9.852200e+04 -2.335000e+03  1.235400e+04
      vertex  9.852200e+04 -1.710000e+03  1.075400e+04
      vertex  9.852200e+04 -2.335000e+03  1.075400e+04
    endloop
  endfacet
  facet normal  -0.000000e+00  0.000000e+00 -9.999999e-01
    outer loop
      vertex  9.852200e+04 -1.710000e+03  1.075400e+04
      vertex  9.979700e+04 -1.710000e+03  1.075400e+04
      vertex  9.852200e+04 -2.335000e+03  1.075400e+04
    endloop
  endfacet
  facet normal  0.000000e+00  0.000000e+00 -9.999999e-01
    outer loop
      vertex  9.852200e+04 -2.335000e+03  1.075400e+04
      vertex  9.979700e+04 -1.710000e+03  1.075400e+04
      vertex  9.979700e+04 -2.335000e+03  1.075400e+04
    endloop
  endfacet
  facet normal  1.000000e+00  -0.000000e+00  0.000000e+00
    outer loop
      vertex  9.979700e+04 -1.710000e+03  1.235400e+04
      vertex  9.979700e+04 -2.335000e+03  1.235400e+04
      vertex  9.979700e+04 -1.710000e+03  1.075400e+04
    endloop
  endfacet
  facet normal  1.000000e+00  0.000000e+00  0.000000e+00
    outer loop
      vertex  9.979700e+04 -1.710000e+03  1.075400e+04
      vertex  9.979700e+04 -2.335000e+03  1.235400e+04
      vertex  9.979700e+04 -2.335000e+03  1.075400e+04
    endloop
  endfacet
  facet normal  0.000000e+00  0.000000e+00  9.999999e-01
    outer loop
      vertex  9.852200e+04 -1.710000e+03  1.235400e+04
      vertex  9.852200e+04 -2.335000e+03  1.235400e+04
      vertex  9.979700e+04 -1.710000e+03  1.235400e+04
    endloop
  endfacet
  facet normal  0.000000e+00  0.000000e+00  9.999999e-01
    outer loop
      vertex  9.979700e+04 -1.710000e+03  1.235400e+04
      vertex  9.852200e+04 -2.335000e+03  1.235400e+04
      vertex  9.979700e+04 -2.335000e+03  1.235400e+04
    endloop
  endfacet
endsolid CATIA STL
