solid CATIA STL
  facet normal  0.000000e+00  1.000000e+00  0.000000e+00
    outer loop
      vertex  7.475000e+04  5.200000e+03  0.000000e+00
      vertex  7.475000e+04  5.200000e+03  8.200000e+02
      vertex  8.645000e+04  5.200000e+03  0.000000e+00
    endloop
  endfacet
  facet normal  0.000000e+00  1.000000e+00  -0.000000e+00
    outer loop
      vertex  8.645000e+04  5.200000e+03  0.000000e+00
      vertex  7.475000e+04  5.200000e+03  8.200000e+02
      vertex  8.645000e+04  5.200000e+03  8.200000e+02
    endloop
  endfacet
  facet normal -1.000000e+00  0.000000e+00  0.000000e+00
    outer loop
      vertex  7.475000e+04 -5.200000e+03  0.000000e+00
      vertex  7.475000e+04 -5.200000e+03  8.200000e+02
      vertex  7.475000e+04  5.200000e+03  0.000000e+00
    endloop
  endfacet
  facet normal -1.000000e+00  0.000000e+00  0.000000e+00
    outer loop
      vertex  7.475000e+04  5.200000e+03  0.000000e+00
      vertex  7.475000e+04 -5.200000e+03  8.200000e+02
      vertex  7.475000e+04  5.200000e+03  8.200000e+02
    endloop
  endfacet
  facet normal  1.000000e+00  0.000000e+00  0.000000e+00
    outer loop
      vertex  8.645000e+04 -5.200000e+03  0.000000e+00
      vertex  8.645000e+04  5.200000e+03  0.000000e+00
      vertex  8.645000e+04 -5.200000e+03  8.200000e+02
    endloop
  endfacet
  facet normal  1.000000e+00  -0.000000e+00  0.000000e+00
    outer loop
      vertex  8.645000e+04 -5.200000e+03  8.200000e+02
      vertex  8.645000e+04  5.200000e+03  0.000000e+00
      vertex  8.645000e+04  5.200000e+03  8.200000e+02
    endloop
  endfacet
  facet normal  0.000000e+00 -1.000000e+00  0.000000e+00
    outer loop
      vertex  7.475000e+04 -5.200000e+03  0.000000e+00
      vertex  8.645000e+04 -5.200000e+03  0.000000e+00
      vertex  7.475000e+04 -5.200000e+03  8.200000e+02
    endloop
  endfacet
  facet normal  0.000000e+00 -1.000000e+00  0.000000e+00
    outer loop
      vertex  7.475000e+04 -5.200000e+03  8.200000e+02
      vertex  8.645000e+04 -5.200000e+03  0.000000e+00
      vertex  8.645000e+04 -5.200000e+03  8.200000e+02
    endloop
  endfacet
  facet normal  0.000000e+00  0.000000e+00  1.000000e+00
    outer loop
      vertex  7.475000e+04 -5.200000e+03  8.200000e+02
      vertex  8.645000e+04 -5.200000e+03  8.200000e+02
      vertex  7.475000e+04  5.200000e+03  8.200000e+02
    endloop
  endfacet
  facet normal  -0.000000e+00  0.000000e+00  1.000000e+00
    outer loop
      vertex  7.475000e+04  5.200000e+03  8.200000e+02
      vertex  8.645000e+04 -5.200000e+03  8.200000e+02
      vertex  8.645000e+04  5.200000e+03  8.200000e+02
    endloop
  endfacet
  facet normal  0.000000e+00  0.000000e+00 -1.000000e+00
    outer loop
      vertex  7.475000e+04 -5.200000e+03  0.000000e+00
      vertex  7.475000e+04  5.200000e+03  0.000000e+00
      vertex  8.645000e+04 -5.200000e+03  0.000000e+00
    endloop
  endfacet
  facet normal  0.000000e+00  0.000000e+00 -1.000000e+00
    outer loop
      vertex  8.645000e+04 -5.200000e+03  0.000000e+00
      vertex  7.475000e+04  5.200000e+03  0.000000e+00
      vertex  8.645000e+04  5.200000e+03  0.000000e+00
    endloop
  endfacet
endsolid CATIA STL
