solid CATIA STL
  facet normal  0.000000e+00  1.000000e+00  0.000000e+00
    outer loop
      vertex  1.320000e+04  5.200000e+03  0.000000e+00
      vertex  1.320000e+04  5.200000e+03  8.200000e+02
      vertex  2.470000e+04  5.200000e+03  0.000000e+00
    endloop
  endfacet
  facet normal  0.000000e+00  1.000000e+00  -0.000000e+00
    outer loop
      vertex  2.470000e+04  5.200000e+03  0.000000e+00
      vertex  1.320000e+04  5.200000e+03  8.200000e+02
      vertex  2.470000e+04  5.200000e+03  8.200000e+02
    endloop
  endfacet
  facet normal -1.000000e+00  0.000000e+00  0.000000e+00
    outer loop
      vertex  1.320000e+04 -5.200000e+03  0.000000e+00
      vertex  1.320000e+04 -5.200000e+03  8.200000e+02
      vertex  1.320000e+04  5.200000e+03  0.000000e+00
    endloop
  endfacet
  facet normal -1.000000e+00  0.000000e+00  0.000000e+00
    outer loop
      vertex  1.320000e+04  5.200000e+03  0.000000e+00
      vertex  1.320000e+04 -5.200000e+03  8.200000e+02
      vertex  1.320000e+04  5.200000e+03  8.200000e+02
    endloop
  endfacet
  facet normal  1.000000e+00  0.000000e+00  0.000000e+00
    outer loop
      vertex  2.470000e+04 -5.200000e+03  0.000000e+00
      vertex  2.470000e+04  5.200000e+03  0.000000e+00
      vertex  2.470000e+04 -5.200000e+03  8.200000e+02
    endloop
  endfacet
  facet normal  1.000000e+00  -0.000000e+00  0.000000e+00
    outer loop
      vertex  2.470000e+04 -5.200000e+03  8.200000e+02
      vertex  2.470000e+04  5.200000e+03  0.000000e+00
      vertex  2.470000e+04  5.200000e+03  8.200000e+02
    endloop
  endfacet
  facet normal  0.000000e+00 -1.000000e+00  0.000000e+00
    outer loop
      vertex  1.320000e+04 -5.200000e+03  0.000000e+00
      vertex  2.470000e+04 -5.200000e+03  0.000000e+00
      vertex  1.320000e+04 -5.200000e+03  8.200000e+02
    endloop
  endfacet
  facet normal  0.000000e+00 -1.000000e+00  0.000000e+00
    outer loop
      vertex  1.320000e+04 -5.200000e+03  8.200000e+02
      vertex  2.470000e+04 -5.200000e+03  0.000000e+00
      vertex  2.470000e+04 -5.200000e+03  8.200000e+02
    endloop
  endfacet
  facet normal  0.000000e+00  0.000000e+00  1.000000e+00
    outer loop
      vertex  1.320000e+04 -5.200000e+03  8.200000e+02
      vertex  2.470000e+04 -5.200000e+03  8.200000e+02
      vertex  1.320000e+04  5.200000e+03  8.200000e+02
    endloop
  endfacet
  facet normal  -0.000000e+00  0.000000e+00  1.000000e+00
    outer loop
      vertex  1.320000e+04  5.200000e+03  8.200000e+02
      vertex  2.470000e+04 -5.200000e+03  8.200000e+02
      vertex  2.470000e+04  5.200000e+03  8.200000e+02
    endloop
  endfacet
  facet normal  0.000000e+00  0.000000e+00 -1.000000e+00
    outer loop
      vertex  1.320000e+04 -5.200000e+03  0.000000e+00
      vertex  1.320000e+04  5.200000e+03  0.000000e+00
      vertex  2.470000e+04 -5.200000e+03  0.000000e+00
    endloop
  endfacet
  facet normal  0.000000e+00  0.000000e+00 -1.000000e+00
    outer loop
      vertex  2.470000e+04 -5.200000e+03  0.000000e+00
      vertex  1.320000e+04  5.200000e+03  0.000000e+00
      vertex  2.470000e+04  5.200000e+03  0.000000e+00
    endloop
  endfacet
endsolid CATIA STL
