solid CATIA STL
  facet normal  0.000000e+00  1.000000e+00  0.000000e+00
    outer loop
      vertex  3.705000e+04  5.200000e+03  0.000000e+00
      vertex  3.705000e+04  5.200000e+03  8.200000e+02
      vertex  5.590000e+04  5.200000e+03  0.000000e+00
    endloop
  endfacet
  facet normal  0.000000e+00  1.000000e+00  -0.000000e+00
    outer loop
      vertex  5.590000e+04  5.200000e+03  0.000000e+00
      vertex  3.705000e+04  5.200000e+03  8.200000e+02
      vertex  5.590000e+04  5.200000e+03  8.200000e+02
    endloop
  endfacet
  facet normal -1.000000e+00  0.000000e+00  0.000000e+00
    outer loop
      vertex  3.705000e+04 -5.200000e+03  0.000000e+00
      vertex  3.705000e+04 -5.200000e+03  8.200000e+02
      vertex  3.705000e+04  5.200000e+03  0.000000e+00
    endloop
  endfacet
  facet normal -1.000000e+00  0.000000e+00  0.000000e+00
    outer loop
      vertex  3.705000e+04  5.200000e+03  0.000000e+00
      vertex  3.705000e+04 -5.200000e+03  8.200000e+02
      vertex  3.705000e+04  5.200000e+03  8.200000e+02
    endloop
  endfacet
  facet normal  1.000000e+00  0.000000e+00  0.000000e+00
    outer loop
      vertex  5.590000e+04 -5.200000e+03  0.000000e+00
      vertex  5.590000e+04  5.200000e+03  0.000000e+00
      vertex  5.590000e+04 -5.200000e+03  8.200000e+02
    endloop
  endfacet
  facet normal  1.000000e+00  -0.000000e+00  0.000000e+00
    outer loop
      vertex  5.590000e+04 -5.200000e+03  8.200000e+02
      vertex  5.590000e+04  5.200000e+03  0.000000e+00
      vertex  5.590000e+04  5.200000e+03  8.200000e+02
    endloop
  endfacet
  facet normal  0.000000e+00 -1.000000e+00  0.000000e+00
    outer loop
      vertex  3.705000e+04 -5.200000e+03  0.000000e+00
      vertex  5.590000e+04 -5.200000e+03  0.000000e+00
      vertex  3.705000e+04 -5.200000e+03  8.200000e+02
    endloop
  endfacet
  facet normal  0.000000e+00 -1.000000e+00  0.000000e+00
    outer loop
      vertex  3.705000e+04 -5.200000e+03  8.200000e+02
      vertex  5.590000e+04 -5.200000e+03  0.000000e+00
      vertex  5.590000e+04 -5.200000e+03  8.200000e+02
    endloop
  endfacet
  facet normal  0.000000e+00  0.000000e+00  9.999999e-01
    outer loop
      vertex  3.705000e+04 -5.200000e+03  8.200000e+02
      vertex  5.590000e+04 -5.200000e+03  8.200000e+02
      vertex  3.705000e+04  5.200000e+03  8.200000e+02
    endloop
  endfacet
  facet normal  -0.000000e+00  0.000000e+00  9.999999e-01
    outer loop
      vertex  3.705000e+04  5.200000e+03  8.200000e+02
      vertex  5.590000e+04 -5.200000e+03  8.200000e+02
      vertex  5.590000e+04  5.200000e+03  8.200000e+02
    endloop
  endfacet
  facet normal  0.000000e+00  0.000000e+00 -9.999999e-01
    outer loop
      vertex  3.705000e+04 -5.200000e+03  0.000000e+00
      vertex  3.705000e+04  5.200000e+03  0.000000e+00
      vertex  5.590000e+04 -5.200000e+03  0.000000e+00
    endloop
  endfacet
  facet normal  0.000000e+00  0.000000e+00 -9.999999e-01
    outer loop
      vertex  5.590000e+04 -5.200000e+03  0.000000e+00
      vertex  3.705000e+04  5.200000e+03  0.000000e+00
      vertex  5.590000e+04  5.200000e+03  0.000000e+00
    endloop
  endfacet
endsolid CATIA STL
