solid CATIA STL
  facet normal  0.000000e+00  0.000000e+00  1.000000e+00
    outer loop
      vertex  9.934600e+04  9.500000e+02  6.000000e+03
      vertex  9.934600e+04  2.000000e+02  6.000000e+03
      vertex  1.019460e+05  9.500000e+02  6.000000e+03
    endloop
  endfacet
  facet normal  0.000000e+00  0.000000e+00  1.000000e+00
    outer loop
      vertex  1.019460e+05  9.500000e+02  6.000000e+03
      vertex  9.934600e+04  2.000000e+02  6.000000e+03
      vertex  1.019460e+05  2.000000e+02  6.000000e+03
    endloop
  endfacet
  facet normal  1.000000e+00  -0.000000e+00  0.000000e+00
    outer loop
      vertex  1.019460e+05  9.500000e+02  6.000000e+03
      vertex  1.019460e+05  2.000000e+02  6.000000e+03
      vertex  1.019460e+05  9.500000e+02  4.100000e+03
    endloop
  endfacet
  facet normal  1.000000e+00  0.000000e+00  0.000000e+00
    outer loop
      vertex  1.019460e+05  9.500000e+02  4.100000e+03
      vertex  1.019460e+05  2.000000e+02  6.000000e+03
      vertex  1.019460e+05  2.000000e+02  4.100000e+03
    endloop
  endfacet
  facet normal  4.756515e-02  0.000000e+00 -9.988681e-01
    outer loop
      vertex  9.984600e+04  9.500000e+02  4.000000e+03
      vertex  1.019460e+05  9.500000e+02  4.100000e+03
      vertex  9.984600e+04  2.000000e+02  4.000000e+03
    endloop
  endfacet
  facet normal  4.756515e-02  0.000000e+00 -9.988681e-01
    outer loop
      vertex  9.984600e+04  2.000000e+02  4.000000e+03
      vertex  1.019460e+05  9.500000e+02  4.100000e+03
      vertex  1.019460e+05  2.000000e+02  4.100000e+03
    endloop
  endfacet
  facet normal  0.000000e+00  0.000000e+00 -1.000000e+00
    outer loop
      vertex  9.934600e+04  2.000000e+02  4.000000e+03
      vertex  9.934600e+04  9.500000e+02  4.000000e+03
      vertex  9.984600e+04  2.000000e+02  4.000000e+03
    endloop
  endfacet
  facet normal  0.000000e+00  0.000000e+00 -1.000000e+00
    outer loop
      vertex  9.984600e+04  2.000000e+02  4.000000e+03
      vertex  9.934600e+04  9.500000e+02  4.000000e+03
      vertex  9.984600e+04  9.500000e+02  4.000000e+03
    endloop
  endfacet
  facet normal -1.000000e+00  0.000000e+00  0.000000e+00
    outer loop
      vertex  9.934600e+04  9.500000e+02  6.000000e+03
      vertex  9.934600e+04  9.500000e+02  4.000000e+03
      vertex  9.934600e+04  2.000000e+02  6.000000e+03
    endloop
  endfacet
  facet normal -1.000000e+00  0.000000e+00  0.000000e+00
    outer loop
      vertex  9.934600e+04  2.000000e+02  6.000000e+03
      vertex  9.934600e+04  9.500000e+02  4.000000e+03
      vertex  9.934600e+04  2.000000e+02  4.000000e+03
    endloop
  endfacet
  facet normal  0.000000e+00  1.000000e+00  0.000000e+00
    outer loop
      vertex  9.934600e+04  9.500000e+02  4.000000e+03
      vertex  9.934600e+04  9.500000e+02  6.000000e+03
      vertex  9.984600e+04  9.500000e+02  4.000000e+03
    endloop
  endfacet
  facet normal  0.000000e+00  1.000000e+00  -0.000000e+00
    outer loop
      vertex  9.984600e+04  9.500000e+02  4.000000e+03
      vertex  9.934600e+04  9.500000e+02  6.000000e+03
      vertex  1.019460e+05  9.500000e+02  6.000000e+03
    endloop
  endfacet
  facet normal  0.000000e+00  9.999999e-01  0.000000e+00
    outer loop
      vertex  9.984600e+04  9.500000e+02  4.000000e+03
      vertex  1.019460e+05  9.500000e+02  6.000000e+03
      vertex  1.019460e+05  9.500000e+02  4.100000e+03
    endloop
  endfacet
  facet normal  0.000000e+00 -1.000000e+00  0.000000e+00
    outer loop
      vertex  9.984600e+04  2.000000e+02  4.000000e+03
      vertex  1.019460e+05  2.000000e+02  4.100000e+03
      vertex  9.934600e+04  2.000000e+02  4.000000e+03
    endloop
  endfacet
  facet normal  0.000000e+00 -1.000000e+00  0.000000e+00
    outer loop
      vertex  9.934600e+04  2.000000e+02  4.000000e+03
      vertex  1.019460e+05  2.000000e+02  4.100000e+03
      vertex  1.019460e+05  2.000000e+02  6.000000e+03
    endloop
  endfacet
  facet normal  -0.000000e+00 -1.000000e+00  0.000000e+00
    outer loop
      vertex  9.934600e+04  2.000000e+02  4.000000e+03
      vertex  1.019460e+05  2.000000e+02  6.000000e+03
      vertex  9.934600e+04  2.000000e+02  6.000000e+03
    endloop
  endfacet
endsolid CATIA STL
