solid CATIA STL
  facet normal -1.000000e+00  0.000000e+00  0.000000e+00
    outer loop
      vertex  1.005500e+05 -2.000000e+03  8.200000e+02
      vertex  1.005500e+05 -2.000000e+03  3.800000e+03
      vertex  1.005500e+05  4.500000e+03  8.200000e+02
    endloop
  endfacet
  facet normal -1.000000e+00  0.000000e+00  0.000000e+00
    outer loop
      vertex  1.005500e+05  4.500000e+03  8.200000e+02
      vertex  1.005500e+05 -2.000000e+03  3.800000e+03
      vertex  1.005500e+05  4.500000e+03  3.800000e+03
    endloop
  endfacet
  facet normal  0.000000e+00  0.000000e+00 -1.000000e+00
    outer loop
      vertex  1.005500e+05 -2.000000e+03  8.200000e+02
      vertex  1.005500e+05  4.500000e+03  8.200000e+02
      vertex  1.029500e+05 -2.000000e+03  8.200000e+02
    endloop
  endfacet
  facet normal  0.000000e+00  0.000000e+00 -1.000000e+00
    outer loop
      vertex  1.029500e+05 -2.000000e+03  8.200000e+02
      vertex  1.005500e+05  4.500000e+03  8.200000e+02
      vertex  1.029500e+05  4.500000e+03  8.200000e+02
    endloop
  endfacet
  facet normal  1.000000e+00  0.000000e+00  0.000000e+00
    outer loop
      vertex  1.029500e+05 -2.000000e+03  8.200000e+02
      vertex  1.029500e+05  4.500000e+03  8.200000e+02
      vertex  1.029500e+05 -2.000000e+03  3.800000e+03
    endloop
  endfacet
  facet normal  1.000000e+00  -0.000000e+00  0.000000e+00
    outer loop
      vertex  1.029500e+05 -2.000000e+03  3.800000e+03
      vertex  1.029500e+05  4.500000e+03  8.200000e+02
      vertex  1.029500e+05  4.500000e+03  3.800000e+03
    endloop
  endfacet
  facet normal  0.000000e+00  0.000000e+00  1.000000e+00
    outer loop
      vertex  1.005500e+05 -2.000000e+03  3.800000e+03
      vertex  1.029500e+05 -2.000000e+03  3.800000e+03
      vertex  1.005500e+05  4.500000e+03  3.800000e+03
    endloop
  endfacet
  facet normal  -0.000000e+00  0.000000e+00  1.000000e+00
    outer loop
      vertex  1.005500e+05  4.500000e+03  3.800000e+03
      vertex  1.029500e+05 -2.000000e+03  3.800000e+03
      vertex  1.029500e+05  4.500000e+03  3.800000e+03
    endloop
  endfacet
  facet normal  0.000000e+00  1.000000e+00  0.000000e+00
    outer loop
      vertex  1.005500e+05  4.500000e+03  8.200000e+02
      vertex  1.005500e+05  4.500000e+03  3.800000e+03
      vertex  1.029500e+05  4.500000e+03  8.200000e+02
    endloop
  endfacet
  facet normal  0.000000e+00  1.000000e+00  -0.000000e+00
    outer loop
      vertex  1.029500e+05  4.500000e+03  8.200000e+02
      vertex  1.005500e+05  4.500000e+03  3.800000e+03
      vertex  1.029500e+05  4.500000e+03  3.800000e+03
    endloop
  endfacet
  facet normal  0.000000e+00 -1.000000e+00  0.000000e+00
    outer loop
      vertex  1.005500e+05 -2.000000e+03  8.200000e+02
      vertex  1.029500e+05 -2.000000e+03  8.200000e+02
      vertex  1.005500e+05 -2.000000e+03  3.800000e+03
    endloop
  endfacet
  facet normal  0.000000e+00 -1.000000e+00  0.000000e+00
    outer loop
      vertex  1.005500e+05 -2.000000e+03  3.800000e+03
      vertex  1.029500e+05 -2.000000e+03  8.200000e+02
      vertex  1.029500e+05 -2.000000e+03  3.800000e+03
    endloop
  endfacet
endsolid CATIA STL
