solid CATIA STL
  facet normal  -0.000000e+00  7.660243e-01  6.428115e-01
    outer loop
      vertex  7.200000e+03 -3.445000e+03  4.200000e+03
      vertex  6.000000e+03 -3.445000e+03  4.200000e+03
      vertex  7.200000e+03 -5.656000e+03  6.834800e+03
    endloop
  endfacet
  facet normal  0.000000e+00  7.660243e-01  6.428115e-01
    outer loop
      vertex  7.200000e+03 -5.656000e+03  6.834800e+03
      vertex  6.000000e+03 -3.445000e+03  4.200000e+03
      vertex  6.000000e+03 -5.656000e+03  6.834800e+03
    endloop
  endfacet
  facet normal  0.000000e+00  0.000000e+00 -1.000000e+00
    outer loop
      vertex  6.000000e+03 -5.835000e+03  4.200000e+03
      vertex  6.000000e+03 -3.445000e+03  4.200000e+03
      vertex  7.200000e+03 -5.835000e+03  4.200000e+03
    endloop
  endfacet
  facet normal  0.000000e+00  0.000000e+00 -1.000000e+00
    outer loop
      vertex  7.200000e+03 -5.835000e+03  4.200000e+03
      vertex  6.000000e+03 -3.445000e+03  4.200000e+03
      vertex  7.200000e+03 -3.445000e+03  4.200000e+03
    endloop
  endfacet
  facet normal  1.000000e+00  0.000000e+00  0.000000e+00
    outer loop
      vertex  7.200000e+03 -5.835000e+03  6.828833e+03
      vertex  7.200000e+03 -5.835000e+03  4.200000e+03
      vertex  7.200000e+03 -5.656000e+03  6.834800e+03
    endloop
  endfacet
  facet normal  1.000000e+00  0.000000e+00  0.000000e+00
    outer loop
      vertex  7.200000e+03 -5.656000e+03  6.834800e+03
      vertex  7.200000e+03 -5.835000e+03  4.200000e+03
      vertex  7.200000e+03 -3.445000e+03  4.200000e+03
    endloop
  endfacet
  facet normal -1.000000e+00  0.000000e+00  0.000000e+00
    outer loop
      vertex  6.000000e+03 -5.835000e+03  6.828833e+03
      vertex  6.000000e+03 -5.656000e+03  6.834800e+03
      vertex  6.000000e+03 -5.835000e+03  4.200000e+03
    endloop
  endfacet
  facet normal -1.000000e+00  0.000000e+00  0.000000e+00
    outer loop
      vertex  6.000000e+03 -5.835000e+03  4.200000e+03
      vertex  6.000000e+03 -5.656000e+03  6.834800e+03
      vertex  6.000000e+03 -3.445000e+03  4.200000e+03
    endloop
  endfacet
  facet normal  0.000000e+00 -3.331283e-02  9.994450e-01
    outer loop
      vertex  7.200000e+03 -5.835000e+03  6.828833e+03
      vertex  7.200000e+03 -5.656000e+03  6.834800e+03
      vertex  6.000000e+03 -5.835000e+03  6.828833e+03
    endloop
  endfacet
  facet normal  0.000000e+00 -3.331283e-02  9.994450e-01
    outer loop
      vertex  6.000000e+03 -5.835000e+03  6.828833e+03
      vertex  7.200000e+03 -5.656000e+03  6.834800e+03
      vertex  6.000000e+03 -5.656000e+03  6.834800e+03
    endloop
  endfacet
  facet normal  0.000000e+00 -1.000000e+00  0.000000e+00
    outer loop
      vertex  6.000000e+03 -5.835000e+03  4.200000e+03
      vertex  7.200000e+03 -5.835000e+03  4.200000e+03
      vertex  6.000000e+03 -5.835000e+03  6.828833e+03
    endloop
  endfacet
  facet normal  0.000000e+00 -1.000000e+00  0.000000e+00
    outer loop
      vertex  6.000000e+03 -5.835000e+03  6.828833e+03
      vertex  7.200000e+03 -5.835000e+03  4.200000e+03
      vertex  7.200000e+03 -5.835000e+03  6.828833e+03
    endloop
  endfacet
endsolid CATIA STL
