<svg width="60" height="60" viewBox="0 0 60 60" fill="none" xmlns="http://www.w3.org/2000/svg">
<path d="M30 0C46.5685 0 60 13.4315 60 30C60 46.5685 46.5685 60 30 60C13.4315 60 0 46.5685 0 30C0 13.4315 13.4315 0 30 0ZM24.166 20C21.6665 19.9937 19.9 20.5141 17.1709 22.0605C15.6021 22.9496 14.7801 23.6026 12.4053 25.8447C10.1115 28.0104 8.90975 28.841 7.44727 29.2725C6.61228 29.5188 5.19812 29.5184 4.27051 29.2715C3.8711 29.1651 3.45014 29.1124 3.33496 29.1543C3.07756 29.2483 2.4374 29.9342 2.27246 30.293C2.20579 30.4382 2.11673 31.5201 2.0752 32.6963L2 34.835L2.29297 35.1709C2.54049 35.4551 2.66603 35.5018 3.11328 35.4746C3.51009 35.4504 3.71226 35.5056 3.92676 35.6992C4.70148 36.3988 8.00303 36.5714 9.83008 36.0078C11.5526 35.4762 12.569 34.868 17.2422 31.5674C19.2656 30.1383 20.0918 29.6489 21.4883 29.0537C25.2131 27.466 27.2817 27.9882 33.0752 31.9795C36.1215 34.0782 37.5467 34.7722 39.4902 35.1035C40.7503 35.3181 42.8339 35.2232 43.7041 34.9121C43.8742 34.8513 43.8957 34.9453 43.8965 35.7617C43.8977 36.9192 44.0799 38.7776 44.2295 39.1553C44.3753 39.5227 45.1051 40.0072 45.502 40C45.6704 39.9969 46.4972 39.6938 47.3389 39.3271C48.1805 38.9603 49.5135 38.3445 50.3008 37.958C52.4664 36.8948 57.5671 34.1537 57.7969 33.9297C58.0965 33.6352 58.0584 32.9128 57.7227 32.5273C57.5725 32.3549 57.4494 32.0761 57.4492 31.9072C57.4492 31.5456 56.3317 30.4829 53.4326 28.0889C52.4254 27.257 50.8951 25.96 50.0322 25.2061C48.4039 23.7836 47.3613 23.0723 46.5195 22.8115C46.2491 22.7278 45.8714 22.5703 45.6807 22.4619C45.3858 22.2945 45.3065 22.2907 45.1533 22.4365C44.6149 22.9495 44.1414 24.8824 44.0459 26.9551C43.9705 28.593 43.9113 28.7119 43.1758 28.7119C42.0981 28.7118 40.1347 27.7013 37.7461 25.918C34.2612 23.316 30.559 21.3793 27.2266 20.415C25.9413 20.0432 25.6492 20.0039 24.166 20ZM18.4277 24.4082C21.5429 22.4394 24.6296 22.0803 28.2109 23.2715C30.3261 23.9751 32.1633 24.9816 36.1348 27.6094C40.2908 30.3592 41.5059 30.9707 42.8105 30.9707C43.9679 30.9707 45.0851 30.332 45.3887 29.498C45.4708 29.2725 45.5858 29.0879 45.6436 29.0879C45.7014 29.0875 45.8234 28.9211 45.915 28.7178C46.0386 28.4434 46.082 27.9382 46.082 26.7686V25.1895L46.6553 25.6816C46.9709 25.9519 47.8442 26.5961 48.5957 27.1133C49.3472 27.6304 51.1185 28.9255 52.5312 29.9922C53.944 31.0587 55.2596 32.0377 55.4551 32.168C55.6504 32.2981 55.8096 32.4361 55.8096 32.4736C55.8072 32.5118 55.4765 32.6757 55.0723 32.8379C53.8239 33.3388 49.8378 35.1763 47.9951 36.1006C47.0354 36.582 46.2099 36.9802 46.1582 36.9863C46.1099 36.9907 46.1037 36.2455 46.1445 35.3311C46.2343 33.3246 46.1202 32.8444 45.5 32.6094C45.1833 32.4894 45.0034 32.5026 44.4785 32.6875C43.9909 32.8592 43.4815 32.9108 42.3105 32.9062C41.0113 32.9011 40.6103 32.8491 39.6514 32.5615C38.2088 32.1288 37.023 31.5667 35.042 30.376C34.1703 29.8521 32.7191 28.9801 31.8174 28.4385C27.217 25.6757 24.4709 25.1261 21.2666 26.3281C19.8676 26.853 18.4656 27.7192 15.75 29.7354C14.4875 30.6726 13.0921 31.6738 12.6494 31.96C10.2082 33.5371 7.99974 34.1602 5.94043 33.8525C5.3844 33.7695 4.82105 33.6935 4.68945 33.6846C4.47452 33.6697 4.44326 33.577 4.37598 32.7529C4.33478 32.2495 4.32714 31.8085 4.3584 31.7725C4.38985 31.7366 4.62912 31.7745 4.89062 31.8564C5.54497 32.0614 7.30541 32.0262 8.09863 31.793C9.30509 31.4381 11.0431 30.3194 13.0723 28.5898C15.2434 26.7392 17.3824 25.0688 18.4277 24.4082Z" fill="#D9D9D9"/>
</svg>
