solid CATIA STL
  facet normal  0.000000e+00  0.000000e+00 -1.000000e+00
    outer loop
      vertex  9.685000e+04  5.200000e+03  8.200000e+02
      vertex  9.685000e+04  4.700000e+03  8.200000e+02
      vertex  9.555000e+04  4.700000e+03  8.200000e+02
    endloop
  endfacet
  facet normal  -0.000000e+00  -0.000000e+00 -1.000000e+00
    outer loop
      vertex  9.555000e+04 -4.700000e+03  8.200000e+02
      vertex  9.685000e+04 -4.700000e+03  8.200000e+02
      vertex  9.685000e+04 -5.200000e+03  8.200000e+02
    endloop
  endfacet
  facet normal  0.000000e+00  0.000000e+00 -9.999999e-01
    outer loop
      vertex  9.555000e+04 -4.700000e+03  8.200000e+02
      vertex  9.685000e+04 -5.200000e+03  8.200000e+02
      vertex  1.500000e+04 -5.200000e+03  8.200000e+02
    endloop
  endfacet
  facet normal  0.000000e+00  0.000000e+00 -9.999999e-01
    outer loop
      vertex  9.555000e+04 -4.700000e+03  8.200000e+02
      vertex  1.500000e+04 -5.200000e+03  8.200000e+02
      vertex  1.500000e+04  0.000000e+00  8.200000e+02
    endloop
  endfacet
  facet normal  0.000000e+00  0.000000e+00 -1.000000e+00
    outer loop
      vertex  9.555000e+04 -4.700000e+03  8.200000e+02
      vertex  1.500000e+04  0.000000e+00  8.200000e+02
      vertex  1.500000e+04  9.800000e+02  8.200000e+02
    endloop
  endfacet
  facet normal  -0.000000e+00  0.000000e+00 -9.999999e-01
    outer loop
      vertex  1.500000e+04  5.200000e+03  8.200000e+02
      vertex  9.685000e+04  5.200000e+03  8.200000e+02
      vertex  9.555000e+04  4.700000e+03  8.200000e+02
    endloop
  endfacet
  facet normal  -0.000000e+00  -0.000000e+00 -1.000000e+00
    outer loop
      vertex  1.500000e+04  5.200000e+03  8.200000e+02
      vertex  9.555000e+04  4.700000e+03  8.200000e+02
      vertex  9.555000e+04  3.590000e+03  8.200000e+02
    endloop
  endfacet
  facet normal  -0.000000e+00  -0.000000e+00 -1.000000e+00
    outer loop
      vertex  1.500000e+04  5.200000e+03  8.200000e+02
      vertex  9.555000e+04  3.590000e+03  8.200000e+02
      vertex  9.555000e+04 -3.590000e+03  8.200000e+02
    endloop
  endfacet
  facet normal  -0.000000e+00  -0.000000e+00 -1.000000e+00
    outer loop
      vertex  1.500000e+04  5.200000e+03  8.200000e+02
      vertex  9.555000e+04 -3.590000e+03  8.200000e+02
      vertex  9.555000e+04 -4.700000e+03  8.200000e+02
    endloop
  endfacet
  facet normal  0.000000e+00  0.000000e+00 -1.000000e+00
    outer loop
      vertex  1.500000e+04  5.200000e+03  8.200000e+02
      vertex  9.555000e+04 -4.700000e+03  8.200000e+02
      vertex  1.500000e+04  9.800000e+02  8.200000e+02
    endloop
  endfacet
  facet normal  0.000000e+00  0.000000e+00 -1.000000e+00
    outer loop
      vertex  1.380000e+04  0.000000e+00  8.200000e+02
      vertex  1.380000e+04  9.800000e+02  8.200000e+02
      vertex  1.500000e+04  0.000000e+00  8.200000e+02
    endloop
  endfacet
  facet normal  0.000000e+00  0.000000e+00 -1.000000e+00
    outer loop
      vertex  1.500000e+04  0.000000e+00  8.200000e+02
      vertex  1.380000e+04  9.800000e+02  8.200000e+02
      vertex  1.500000e+04  9.800000e+02  8.200000e+02
    endloop
  endfacet
  facet normal  0.000000e+00  0.000000e+00 -1.000000e+00
    outer loop
      vertex  9.555000e+04 -3.590000e+03  8.200000e+02
      vertex  9.555000e+04  3.590000e+03  8.200000e+02
      vertex  9.685000e+04 -3.590000e+03  8.200000e+02
    endloop
  endfacet
  facet normal  0.000000e+00  0.000000e+00 -1.000000e+00
    outer loop
      vertex  9.685000e+04 -3.590000e+03  8.200000e+02
      vertex  9.555000e+04  3.590000e+03  8.200000e+02
      vertex  9.685000e+04  3.590000e+03  8.200000e+02
    endloop
  endfacet
  facet normal -1.000000e+00  0.000000e+00  0.000000e+00
    outer loop
      vertex  1.380000e+04  0.000000e+00  8.200000e+02
      vertex  1.380000e+04  0.000000e+00  6.850000e+03
      vertex  1.380000e+04  9.800000e+02  8.200000e+02
    endloop
  endfacet
  facet normal -1.000000e+00  0.000000e+00  0.000000e+00
    outer loop
      vertex  1.380000e+04  9.800000e+02  8.200000e+02
      vertex  1.380000e+04  0.000000e+00  6.850000e+03
      vertex  1.380000e+04  9.800000e+02  6.850000e+03
    endloop
  endfacet
  facet normal -1.000000e+00  0.000000e+00  0.000000e+00
    outer loop
      vertex  1.500000e+04  5.200000e+03  8.230000e+03
      vertex  1.500000e+04  5.200000e+03  8.200000e+02
      vertex  1.500000e+04  9.800000e+02  8.200000e+02
    endloop
  endfacet
  facet normal -1.000000e+00  0.000000e+00  0.000000e+00
    outer loop
      vertex  1.500000e+04  5.200000e+03  8.230000e+03
      vertex  1.500000e+04  9.800000e+02  8.200000e+02
      vertex  1.500000e+04  9.800000e+02  6.850000e+03
    endloop
  endfacet
  facet normal -1.000000e+00  0.000000e+00  0.000000e+00
    outer loop
      vertex  1.500000e+04  5.200000e+03  8.230000e+03
      vertex  1.500000e+04  9.800000e+02  6.850000e+03
      vertex  1.500000e+04  0.000000e+00  6.850000e+03
    endloop
  endfacet
  facet normal -1.000000e+00  0.000000e+00  0.000000e+00
    outer loop
      vertex  1.500000e+04  5.200000e+03  8.230000e+03
      vertex  1.500000e+04  0.000000e+00  6.850000e+03
      vertex  1.500000e+04 -5.200000e+03  8.230000e+03
    endloop
  endfacet
  facet normal -1.000000e+00  0.000000e+00  0.000000e+00
    outer loop
      vertex  1.500000e+04 -5.200000e+03  8.200000e+02
      vertex  1.500000e+04 -5.200000e+03  8.230000e+03
      vertex  1.500000e+04  0.000000e+00  8.200000e+02
    endloop
  endfacet
  facet normal -1.000000e+00  0.000000e+00  0.000000e+00
    outer loop
      vertex  1.500000e+04  0.000000e+00  8.200000e+02
      vertex  1.500000e+04 -5.200000e+03  8.230000e+03
      vertex  1.500000e+04  0.000000e+00  6.850000e+03
    endloop
  endfacet
  facet normal  0.000000e+00  1.000000e+00  0.000000e+00
    outer loop
      vertex  1.380000e+04  9.800000e+02  8.200000e+02
      vertex  1.380000e+04  9.800000e+02  6.850000e+03
      vertex  1.500000e+04  9.800000e+02  8.200000e+02
    endloop
  endfacet
  facet normal  0.000000e+00  1.000000e+00  -0.000000e+00
    outer loop
      vertex  1.500000e+04  9.800000e+02  8.200000e+02
      vertex  1.380000e+04  9.800000e+02  6.850000e+03
      vertex  1.500000e+04  9.800000e+02  6.850000e+03
    endloop
  endfacet
  facet normal  0.000000e+00  0.000000e+00  1.000000e+00
    outer loop
      vertex  1.500000e+04  0.000000e+00  6.850000e+03
      vertex  1.500000e+04  9.800000e+02  6.850000e+03
      vertex  1.380000e+04  0.000000e+00  6.850000e+03
    endloop
  endfacet
  facet normal  0.000000e+00  0.000000e+00  1.000000e+00
    outer loop
      vertex  1.380000e+04  0.000000e+00  6.850000e+03
      vertex  1.500000e+04  9.800000e+02  6.850000e+03
      vertex  1.380000e+04  9.800000e+02  6.850000e+03
    endloop
  endfacet
  facet normal  0.000000e+00 -1.000000e+00  -0.000000e+00
    outer loop
      vertex  1.500000e+04  0.000000e+00  8.200000e+02
      vertex  1.500000e+04  0.000000e+00  6.850000e+03
      vertex  1.380000e+04  0.000000e+00  8.200000e+02
    endloop
  endfacet
  facet normal  0.000000e+00 -1.000000e+00  0.000000e+00
    outer loop
      vertex  1.380000e+04  0.000000e+00  8.200000e+02
      vertex  1.500000e+04  0.000000e+00  6.850000e+03
      vertex  1.380000e+04  0.000000e+00  6.850000e+03
    endloop
  endfacet
  facet normal  -0.000000e+00  9.999999e-01  0.000000e+00
    outer loop
      vertex  1.500000e+04  5.200000e+03  8.200000e+02
      vertex  1.500000e+04  5.200000e+03  8.230000e+03
      vertex  9.555000e+04  5.200000e+03  8.230000e+03
    endloop
  endfacet
  facet normal  0.000000e+00  1.000000e+00  0.000000e+00
    outer loop
      vertex  1.500000e+04  5.200000e+03  8.200000e+02
      vertex  9.555000e+04  5.200000e+03  8.230000e+03
      vertex  9.555000e+04  5.200000e+03  6.850000e+03
    endloop
  endfacet
  facet normal  -0.000000e+00  1.000000e+00  0.000000e+00
    outer loop
      vertex  1.500000e+04  5.200000e+03  8.200000e+02
      vertex  9.555000e+04  5.200000e+03  6.850000e+03
      vertex  9.685000e+04  5.200000e+03  6.850000e+03
    endloop
  endfacet
  facet normal  0.000000e+00  1.000000e+00  0.000000e+00
    outer loop
      vertex  1.500000e+04  5.200000e+03  8.200000e+02
      vertex  9.685000e+04  5.200000e+03  6.850000e+03
      vertex  9.685000e+04  5.200000e+03  8.200000e+02
    endloop
  endfacet
  facet normal  0.000000e+00 -1.000000e+00  0.000000e+00
    outer loop
      vertex  1.500000e+04 -5.200000e+03  8.200000e+02
      vertex  9.685000e+04 -5.200000e+03  8.200000e+02
      vertex  9.685000e+04 -5.200000e+03  6.850000e+03
    endloop
  endfacet
  facet normal  -0.000000e+00 -1.000000e+00  0.000000e+00
    outer loop
      vertex  1.500000e+04 -5.200000e+03  8.200000e+02
      vertex  9.685000e+04 -5.200000e+03  6.850000e+03
      vertex  9.555000e+04 -5.200000e+03  6.850000e+03
    endloop
  endfacet
  facet normal  -0.000000e+00 -1.000000e+00  0.000000e+00
    outer loop
      vertex  1.500000e+04 -5.200000e+03  8.200000e+02
      vertex  9.555000e+04 -5.200000e+03  6.850000e+03
      vertex  9.555000e+04 -5.200000e+03  8.230000e+03
    endloop
  endfacet
  facet normal  -0.000000e+00 -9.999999e-01  0.000000e+00
    outer loop
      vertex  1.500000e+04 -5.200000e+03  8.200000e+02
      vertex  9.555000e+04 -5.200000e+03  8.230000e+03
      vertex  1.500000e+04 -5.200000e+03  8.230000e+03
    endloop
  endfacet
  facet normal  1.000000e+00  0.000000e+00  0.000000e+00
    outer loop
      vertex  9.685000e+04 -3.590000e+03  8.200000e+02
      vertex  9.685000e+04  3.590000e+03  8.200000e+02
      vertex  9.685000e+04 -3.590000e+03  6.850000e+03
    endloop
  endfacet
  facet normal  1.000000e+00  -0.000000e+00  0.000000e+00
    outer loop
      vertex  9.685000e+04 -3.590000e+03  6.850000e+03
      vertex  9.685000e+04  3.590000e+03  8.200000e+02
      vertex  9.685000e+04  3.590000e+03  6.850000e+03
    endloop
  endfacet
  facet normal  1.000000e+00  0.000000e+00  0.000000e+00
    outer loop
      vertex  9.685000e+04 -5.200000e+03  8.200000e+02
      vertex  9.685000e+04 -4.700000e+03  8.200000e+02
      vertex  9.685000e+04 -5.200000e+03  6.850000e+03
    endloop
  endfacet
  facet normal  1.000000e+00  -0.000000e+00  0.000000e+00
    outer loop
      vertex  9.685000e+04 -5.200000e+03  6.850000e+03
      vertex  9.685000e+04 -4.700000e+03  8.200000e+02
      vertex  9.685000e+04 -4.700000e+03  6.850000e+03
    endloop
  endfacet
  facet normal  1.000000e+00  0.000000e+00  0.000000e+00
    outer loop
      vertex  9.685000e+04  4.700000e+03  8.200000e+02
      vertex  9.685000e+04  5.200000e+03  8.200000e+02
      vertex  9.685000e+04  4.700000e+03  6.850000e+03
    endloop
  endfacet
  facet normal  1.000000e+00  -0.000000e+00  0.000000e+00
    outer loop
      vertex  9.685000e+04  4.700000e+03  6.850000e+03
      vertex  9.685000e+04  5.200000e+03  8.200000e+02
      vertex  9.685000e+04  5.200000e+03  6.850000e+03
    endloop
  endfacet
  facet normal  1.000000e+00  -0.000000e+00  0.000000e+00
    outer loop
      vertex  9.555000e+04  5.200000e+03  8.230000e+03
      vertex  9.555000e+04 -5.200000e+03  8.230000e+03
      vertex  9.555000e+04 -5.200000e+03  6.850000e+03
    endloop
  endfacet
  facet normal  1.000000e+00  0.000000e+00  0.000000e+00
    outer loop
      vertex  9.555000e+04  5.200000e+03  8.230000e+03
      vertex  9.555000e+04 -5.200000e+03  6.850000e+03
      vertex  9.555000e+04 -4.700000e+03  6.850000e+03
    endloop
  endfacet
  facet normal  9.999999e-01  0.000000e+00  0.000000e+00
    outer loop
      vertex  9.555000e+04  5.200000e+03  8.230000e+03
      vertex  9.555000e+04 -4.700000e+03  6.850000e+03
      vertex  9.555000e+04 -3.590000e+03  6.850000e+03
    endloop
  endfacet
  facet normal  1.000000e+00  0.000000e+00  0.000000e+00
    outer loop
      vertex  9.555000e+04  5.200000e+03  8.230000e+03
      vertex  9.555000e+04 -3.590000e+03  6.850000e+03
      vertex  9.555000e+04  3.590000e+03  6.850000e+03
    endloop
  endfacet
  facet normal  9.999999e-01  0.000000e+00  0.000000e+00
    outer loop
      vertex  9.555000e+04  5.200000e+03  8.230000e+03
      vertex  9.555000e+04  3.590000e+03  6.850000e+03
      vertex  9.555000e+04  4.700000e+03  6.850000e+03
    endloop
  endfacet
  facet normal  1.000000e+00  0.000000e+00  0.000000e+00
    outer loop
      vertex  9.555000e+04  5.200000e+03  8.230000e+03
      vertex  9.555000e+04  4.700000e+03  6.850000e+03
      vertex  9.555000e+04  5.200000e+03  6.850000e+03
    endloop
  endfacet
  facet normal  1.000000e+00  0.000000e+00  0.000000e+00
    outer loop
      vertex  9.555000e+04 -4.700000e+03  8.200000e+02
      vertex  9.555000e+04 -3.590000e+03  8.200000e+02
      vertex  9.555000e+04 -4.700000e+03  6.850000e+03
    endloop
  endfacet
  facet normal  1.000000e+00  -0.000000e+00  0.000000e+00
    outer loop
      vertex  9.555000e+04 -4.700000e+03  6.850000e+03
      vertex  9.555000e+04 -3.590000e+03  8.200000e+02
      vertex  9.555000e+04 -3.590000e+03  6.850000e+03
    endloop
  endfacet
  facet normal  1.000000e+00  0.000000e+00  0.000000e+00
    outer loop
      vertex  9.555000e+04  3.590000e+03  8.200000e+02
      vertex  9.555000e+04  4.700000e+03  8.200000e+02
      vertex  9.555000e+04  3.590000e+03  6.850000e+03
    endloop
  endfacet
  facet normal  1.000000e+00  -0.000000e+00  0.000000e+00
    outer loop
      vertex  9.555000e+04  3.590000e+03  6.850000e+03
      vertex  9.555000e+04  4.700000e+03  8.200000e+02
      vertex  9.555000e+04  4.700000e+03  6.850000e+03
    endloop
  endfacet
  facet normal  0.000000e+00 -1.000000e+00  0.000000e+00
    outer loop
      vertex  9.555000e+04 -3.590000e+03  6.850000e+03
      vertex  9.555000e+04 -3.590000e+03  8.200000e+02
      vertex  9.685000e+04 -3.590000e+03  6.850000e+03
    endloop
  endfacet
  facet normal  0.000000e+00 -1.000000e+00  -0.000000e+00
    outer loop
      vertex  9.685000e+04 -3.590000e+03  6.850000e+03
      vertex  9.555000e+04 -3.590000e+03  8.200000e+02
      vertex  9.685000e+04 -3.590000e+03  8.200000e+02
    endloop
  endfacet
  facet normal  0.000000e+00  1.000000e+00  0.000000e+00
    outer loop
      vertex  9.555000e+04  3.590000e+03  6.850000e+03
      vertex  9.685000e+04  3.590000e+03  6.850000e+03
      vertex  9.555000e+04  3.590000e+03  8.200000e+02
    endloop
  endfacet
  facet normal  0.000000e+00  1.000000e+00  0.000000e+00
    outer loop
      vertex  9.555000e+04  3.590000e+03  8.200000e+02
      vertex  9.685000e+04  3.590000e+03  6.850000e+03
      vertex  9.685000e+04  3.590000e+03  8.200000e+02
    endloop
  endfacet
  facet normal  0.000000e+00  0.000000e+00  1.000000e+00
    outer loop
      vertex  9.685000e+04 -3.590000e+03  6.850000e+03
      vertex  9.685000e+04  3.590000e+03  6.850000e+03
      vertex  9.555000e+04 -3.590000e+03  6.850000e+03
    endloop
  endfacet
  facet normal  0.000000e+00  0.000000e+00  1.000000e+00
    outer loop
      vertex  9.555000e+04 -3.590000e+03  6.850000e+03
      vertex  9.685000e+04  3.590000e+03  6.850000e+03
      vertex  9.555000e+04  3.590000e+03  6.850000e+03
    endloop
  endfacet
  facet normal  0.000000e+00  1.000000e+00  0.000000e+00
    outer loop
      vertex  9.555000e+04 -4.700000e+03  6.850000e+03
      vertex  9.685000e+04 -4.700000e+03  6.850000e+03
      vertex  9.555000e+04 -4.700000e+03  8.200000e+02
    endloop
  endfacet
  facet normal  0.000000e+00  1.000000e+00  0.000000e+00
    outer loop
      vertex  9.555000e+04 -4.700000e+03  8.200000e+02
      vertex  9.685000e+04 -4.700000e+03  6.850000e+03
      vertex  9.685000e+04 -4.700000e+03  8.200000e+02
    endloop
  endfacet
  facet normal  0.000000e+00  0.000000e+00  1.000000e+00
    outer loop
      vertex  9.685000e+04 -5.200000e+03  6.850000e+03
      vertex  9.685000e+04 -4.700000e+03  6.850000e+03
      vertex  9.555000e+04 -5.200000e+03  6.850000e+03
    endloop
  endfacet
  facet normal  0.000000e+00  0.000000e+00  1.000000e+00
    outer loop
      vertex  9.555000e+04 -5.200000e+03  6.850000e+03
      vertex  9.685000e+04 -4.700000e+03  6.850000e+03
      vertex  9.555000e+04 -4.700000e+03  6.850000e+03
    endloop
  endfacet
  facet normal  0.000000e+00 -1.000000e+00  0.000000e+00
    outer loop
      vertex  9.555000e+04  4.700000e+03  6.850000e+03
      vertex  9.555000e+04  4.700000e+03  8.200000e+02
      vertex  9.685000e+04  4.700000e+03  6.850000e+03
    endloop
  endfacet
  facet normal  0.000000e+00 -1.000000e+00  -0.000000e+00
    outer loop
      vertex  9.685000e+04  4.700000e+03  6.850000e+03
      vertex  9.555000e+04  4.700000e+03  8.200000e+02
      vertex  9.685000e+04  4.700000e+03  8.200000e+02
    endloop
  endfacet
  facet normal  0.000000e+00  0.000000e+00  1.000000e+00
    outer loop
      vertex  9.685000e+04  4.700000e+03  6.850000e+03
      vertex  9.685000e+04  5.200000e+03  6.850000e+03
      vertex  9.555000e+04  4.700000e+03  6.850000e+03
    endloop
  endfacet
  facet normal  0.000000e+00  0.000000e+00  1.000000e+00
    outer loop
      vertex  9.555000e+04  4.700000e+03  6.850000e+03
      vertex  9.685000e+04  5.200000e+03  6.850000e+03
      vertex  9.555000e+04  5.200000e+03  6.850000e+03
    endloop
  endfacet
  facet normal  0.000000e+00  0.000000e+00  9.999999e-01
    outer loop
      vertex  1.500000e+04  5.200000e+03  8.230000e+03
      vertex  1.500000e+04 -5.200000e+03  8.230000e+03
      vertex  9.555000e+04  5.200000e+03  8.230000e+03
    endloop
  endfacet
  facet normal  0.000000e+00  0.000000e+00  9.999999e-01
    outer loop
      vertex  9.555000e+04  5.200000e+03  8.230000e+03
      vertex  1.500000e+04 -5.200000e+03  8.230000e+03
      vertex  9.555000e+04 -5.200000e+03  8.230000e+03
    endloop
  endfacet
endsolid CATIA STL
