solid CATIA STL
  facet normal  1.000000e+00  0.000000e+00  0.000000e+00
    outer loop
      vertex  7.200000e+03  5.000000e+03  2.500000e+03
      vertex  7.200000e+03  6.000000e+03  2.500000e+03
      vertex  7.200000e+03  5.000000e+03  3.200000e+03
    endloop
  endfacet
  facet normal  1.000000e+00  -0.000000e+00  0.000000e+00
    outer loop
      vertex  7.200000e+03  5.000000e+03  3.200000e+03
      vertex  7.200000e+03  6.000000e+03  2.500000e+03
      vertex  7.200000e+03  6.000000e+03  3.200000e+03
    endloop
  endfacet
  facet normal -1.000000e+00  0.000000e+00  0.000000e+00
    outer loop
      vertex  6.200000e+03  5.000000e+03  2.500000e+03
      vertex  6.200000e+03  5.000000e+03  3.200000e+03
      vertex  6.200000e+03  6.000000e+03  2.500000e+03
    endloop
  endfacet
  facet normal -1.000000e+00  0.000000e+00  0.000000e+00
    outer loop
      vertex  6.200000e+03  6.000000e+03  2.500000e+03
      vertex  6.200000e+03  5.000000e+03  3.200000e+03
      vertex  6.200000e+03  6.000000e+03  3.200000e+03
    endloop
  endfacet
  facet normal  0.000000e+00 -1.000000e+00  0.000000e+00
    outer loop
      vertex  6.200000e+03  5.000000e+03  2.500000e+03
      vertex  7.200000e+03  5.000000e+03  2.500000e+03
      vertex  6.200000e+03  5.000000e+03  3.200000e+03
    endloop
  endfacet
  facet normal  0.000000e+00 -1.000000e+00  0.000000e+00
    outer loop
      vertex  6.200000e+03  5.000000e+03  3.200000e+03
      vertex  7.200000e+03  5.000000e+03  2.500000e+03
      vertex  7.200000e+03  5.000000e+03  3.200000e+03
    endloop
  endfacet
  facet normal  0.000000e+00  1.000000e+00  0.000000e+00
    outer loop
      vertex  6.200000e+03  6.000000e+03  2.500000e+03
      vertex  6.200000e+03  6.000000e+03  3.200000e+03
      vertex  7.200000e+03  6.000000e+03  2.500000e+03
    endloop
  endfacet
  facet normal  0.000000e+00  1.000000e+00  -0.000000e+00
    outer loop
      vertex  7.200000e+03  6.000000e+03  2.500000e+03
      vertex  6.200000e+03  6.000000e+03  3.200000e+03
      vertex  7.200000e+03  6.000000e+03  3.200000e+03
    endloop
  endfacet
  facet normal  0.000000e+00  0.000000e+00  1.000000e+00
    outer loop
      vertex  6.200000e+03  5.000000e+03  3.200000e+03
      vertex  7.200000e+03  5.000000e+03  3.200000e+03
      vertex  6.200000e+03  6.000000e+03  3.200000e+03
    endloop
  endfacet
  facet normal  -0.000000e+00  0.000000e+00  1.000000e+00
    outer loop
      vertex  6.200000e+03  6.000000e+03  3.200000e+03
      vertex  7.200000e+03  5.000000e+03  3.200000e+03
      vertex  7.200000e+03  6.000000e+03  3.200000e+03
    endloop
  endfacet
  facet normal  0.000000e+00  0.000000e+00 -1.000000e+00
    outer loop
      vertex  6.200000e+03  5.000000e+03  2.500000e+03
      vertex  6.200000e+03  6.000000e+03  2.500000e+03
      vertex  7.200000e+03  5.000000e+03  2.500000e+03
    endloop
  endfacet
  facet normal  0.000000e+00  0.000000e+00 -1.000000e+00
    outer loop
      vertex  7.200000e+03  5.000000e+03  2.500000e+03
      vertex  6.200000e+03  6.000000e+03  2.500000e+03
      vertex  7.200000e+03  6.000000e+03  2.500000e+03
    endloop
  endfacet
endsolid CATIA STL
