solid CATIA STL
  facet normal  0.000000e+00  1.000000e+00  0.000000e+00
    outer loop
      vertex  6.000000e+03 -1.500000e+03  1.400000e+03
      vertex  1.020000e+04 -1.500000e+03  1.400000e+03
      vertex  1.020000e+04 -1.500000e+03  1.806527e+02
    endloop
  endfacet
  facet normal  0.000000e+00  1.000000e+00  0.000000e+00
    outer loop
      vertex  6.000000e+03 -1.500000e+03  1.400000e+03
      vertex  1.020000e+04 -1.500000e+03  1.806527e+02
      vertex  1.011806e+04 -1.500000e+03  1.906950e+02
    endloop
  endfacet
  facet normal  0.000000e+00  1.000000e+00  0.000000e+00
    outer loop
      vertex  6.000000e+03 -1.500000e+03  1.400000e+03
      vertex  1.011806e+04 -1.500000e+03  1.906950e+02
      vertex  9.652374e+03 -1.500000e+03  2.529932e+02
    endloop
  endfacet
  facet normal  0.000000e+00  1.000000e+00  0.000000e+00
    outer loop
      vertex  6.000000e+03 -1.500000e+03  1.400000e+03
      vertex  9.652374e+03 -1.500000e+03  2.529932e+02
      vertex  9.192988e+03 -1.500000e+03  3.232122e+02
    endloop
  endfacet
  facet normal  0.000000e+00  9.999999e-01  0.000000e+00
    outer loop
      vertex  6.000000e+03 -1.500000e+03  1.400000e+03
      vertex  9.192988e+03 -1.500000e+03  3.232122e+02
      vertex  8.849383e+03 -1.500000e+03  3.814677e+02
    endloop
  endfacet
  facet normal  0.000000e+00  9.999999e-01  0.000000e+00
    outer loop
      vertex  6.000000e+03 -1.500000e+03  1.400000e+03
      vertex  8.849383e+03 -1.500000e+03  3.814677e+02
      vertex  8.506565e+03 -1.500000e+03  4.445185e+02
    endloop
  endfacet
  facet normal  0.000000e+00  1.000000e+00  0.000000e+00
    outer loop
      vertex  6.000000e+03 -1.500000e+03  1.400000e+03
      vertex  8.506565e+03 -1.500000e+03  4.445185e+02
      vertex  8.278545e+03 -1.500000e+03  4.892007e+02
    endloop
  endfacet
  facet normal  0.000000e+00  1.000000e+00  0.000000e+00
    outer loop
      vertex  6.000000e+03 -1.500000e+03  1.400000e+03
      vertex  8.278545e+03 -1.500000e+03  4.892007e+02
      vertex  7.823806e+03 -1.500000e+03  5.849117e+02
    endloop
  endfacet
  facet normal  0.000000e+00  1.000000e+00  0.000000e+00
    outer loop
      vertex  6.000000e+03 -1.500000e+03  1.400000e+03
      vertex  7.823806e+03 -1.500000e+03  5.849117e+02
      vertex  7.295623e+03 -1.500000e+03  7.072371e+02
    endloop
  endfacet
  facet normal  0.000000e+00  9.999999e-01  0.000000e+00
    outer loop
      vertex  6.000000e+03 -1.500000e+03  1.400000e+03
      vertex  7.295623e+03 -1.500000e+03  7.072371e+02
      vertex  6.812782e+03 -1.500000e+03  8.296990e+02
    endloop
  endfacet
  facet normal  0.000000e+00  1.000000e+00  0.000000e+00
    outer loop
      vertex  6.000000e+03 -1.500000e+03  1.400000e+03
      vertex  6.812782e+03 -1.500000e+03  8.296990e+02
      vertex  6.632195e+03 -1.500000e+03  8.782215e+02
    endloop
  endfacet
  facet normal  0.000000e+00  1.000000e+00  0.000000e+00
    outer loop
      vertex  6.000000e+03 -1.500000e+03  1.400000e+03
      vertex  6.632195e+03 -1.500000e+03  8.782215e+02
      vertex  6.279633e+03 -1.500000e+03  9.776192e+02
    endloop
  endfacet
  facet normal  0.000000e+00  9.999999e-01  0.000000e+00
    outer loop
      vertex  6.000000e+03 -1.500000e+03  1.400000e+03
      vertex  6.279633e+03 -1.500000e+03  9.776192e+02
      vertex  6.000000e+03 -1.500000e+03  1.060924e+03
    endloop
  endfacet
  facet normal  0.000000e+00 -1.000000e+00  0.000000e+00
    outer loop
      vertex  6.000000e+03 -2.100000e+03  1.400000e+03
      vertex  6.000000e+03 -2.100000e+03  1.065470e+03
      vertex  6.247323e+03 -2.100000e+03  9.892292e+02
    endloop
  endfacet
  facet normal  0.000000e+00 -1.000000e+00  0.000000e+00
    outer loop
      vertex  6.000000e+03 -2.100000e+03  1.400000e+03
      vertex  6.247323e+03 -2.100000e+03  9.892292e+02
      vertex  6.558765e+03 -2.100000e+03  8.988506e+02
    endloop
  endfacet
  facet normal  0.000000e+00 -1.000000e+00  0.000000e+00
    outer loop
      vertex  6.000000e+03 -2.100000e+03  1.400000e+03
      vertex  6.558765e+03 -2.100000e+03  8.988506e+02
      vertex  6.812782e+03 -2.100000e+03  8.296990e+02
    endloop
  endfacet
  facet normal  0.000000e+00 -1.000000e+00  0.000000e+00
    outer loop
      vertex  6.000000e+03 -2.100000e+03  1.400000e+03
      vertex  6.812782e+03 -2.100000e+03  8.296990e+02
      vertex  7.320895e+03 -2.100000e+03  7.011088e+02
    endloop
  endfacet
  facet normal  0.000000e+00 -1.000000e+00  0.000000e+00
    outer loop
      vertex  6.000000e+03 -2.100000e+03  1.400000e+03
      vertex  7.320895e+03 -2.100000e+03  7.011088e+02
      vertex  7.823915e+03 -2.100000e+03  5.848878e+02
    endloop
  endfacet
  facet normal  0.000000e+00 -1.000000e+00  0.000000e+00
    outer loop
      vertex  6.000000e+03 -2.100000e+03  1.400000e+03
      vertex  7.823915e+03 -2.100000e+03  5.848878e+02
      vertex  8.278654e+03 -2.100000e+03  4.891787e+02
    endloop
  endfacet
  facet normal  0.000000e+00 -1.000000e+00  0.000000e+00
    outer loop
      vertex  6.000000e+03 -2.100000e+03  1.400000e+03
      vertex  8.278654e+03 -2.100000e+03  4.891787e+02
      vertex  8.506675e+03 -2.100000e+03  4.444976e+02
    endloop
  endfacet
  facet normal  0.000000e+00 -9.999999e-01  0.000000e+00
    outer loop
      vertex  6.000000e+03 -2.100000e+03  1.400000e+03
      vertex  8.506675e+03 -2.100000e+03  4.444976e+02
      vertex  8.849493e+03 -2.100000e+03  3.814482e+02
    endloop
  endfacet
  facet normal  0.000000e+00 -1.000000e+00  0.000000e+00
    outer loop
      vertex  6.000000e+03 -2.100000e+03  1.400000e+03
      vertex  8.849493e+03 -2.100000e+03  3.814482e+02
      vertex  9.193099e+03 -2.100000e+03  3.231943e+02
    endloop
  endfacet
  facet normal  0.000000e+00 -1.000000e+00  0.000000e+00
    outer loop
      vertex  6.000000e+03 -2.100000e+03  1.400000e+03
      vertex  9.193099e+03 -2.100000e+03  3.231943e+02
      vertex  9.652484e+03 -2.100000e+03  2.529773e+02
    endloop
  endfacet
  facet normal  0.000000e+00 -1.000000e+00  0.000000e+00
    outer loop
      vertex  6.000000e+03 -2.100000e+03  1.400000e+03
      vertex  9.652484e+03 -2.100000e+03  2.529773e+02
      vertex  1.011811e+04 -2.100000e+03  1.906881e+02
    endloop
  endfacet
  facet normal  0.000000e+00 -9.999999e-01  0.000000e+00
    outer loop
      vertex  6.000000e+03 -2.100000e+03  1.400000e+03
      vertex  1.011811e+04 -2.100000e+03  1.906881e+02
      vertex  1.020000e+04 -2.100000e+03  1.806527e+02
    endloop
  endfacet
  facet normal  0.000000e+00 -1.000000e+00  0.000000e+00
    outer loop
      vertex  6.000000e+03 -2.100000e+03  1.400000e+03
      vertex  1.020000e+04 -2.100000e+03  1.806527e+02
      vertex  1.020000e+04 -2.100000e+03  1.400000e+03
    endloop
  endfacet
  facet normal -9.999999e-01  0.000000e+00  0.000000e+00
    outer loop
      vertex  6.000000e+03 -2.100000e+03  1.065470e+03
      vertex  6.000000e+03 -2.100000e+03  1.400000e+03
      vertex  6.000000e+03 -1.500000e+03  1.060924e+03
    endloop
  endfacet
  facet normal -1.000000e+00  0.000000e+00  0.000000e+00
    outer loop
      vertex  6.000000e+03 -1.500000e+03  1.060924e+03
      vertex  6.000000e+03 -2.100000e+03  1.400000e+03
      vertex  6.000000e+03 -1.500000e+03  1.400000e+03
    endloop
  endfacet
  facet normal  1.000000e+00  0.000000e+00  0.000000e+00
    outer loop
      vertex  1.020000e+04 -2.100000e+03  1.806527e+02
      vertex  1.020000e+04 -1.500000e+03  1.806527e+02
      vertex  1.020000e+04 -2.100000e+03  1.400000e+03
    endloop
  endfacet
  facet normal  1.000000e+00  -0.000000e+00  0.000000e+00
    outer loop
      vertex  1.020000e+04 -2.100000e+03  1.400000e+03
      vertex  1.020000e+04 -1.500000e+03  1.806527e+02
      vertex  1.020000e+04 -1.500000e+03  1.400000e+03
    endloop
  endfacet
  facet normal  0.000000e+00  0.000000e+00  9.999999e-01
    outer loop
      vertex  6.000000e+03 -2.100000e+03  1.400000e+03
      vertex  1.020000e+04 -2.100000e+03  1.400000e+03
      vertex  6.000000e+03 -1.500000e+03  1.400000e+03
    endloop
  endfacet
  facet normal  -0.000000e+00  0.000000e+00  9.999999e-01
    outer loop
      vertex  6.000000e+03 -1.500000e+03  1.400000e+03
      vertex  1.020000e+04 -2.100000e+03  1.400000e+03
      vertex  1.020000e+04 -1.500000e+03  1.400000e+03
    endloop
  endfacet
  facet normal -2.594890e-01  0.000000e+00 -9.657460e-01
    outer loop
      vertex  6.812782e+03 -1.500000e+03  8.296990e+02
      vertex  6.812782e+03 -2.100000e+03  8.296990e+02
      vertex  6.632195e+03 -1.500000e+03  8.782215e+02
    endloop
  endfacet
  facet normal -2.626726e-01 -1.027875e-03 -9.648845e-01
    outer loop
      vertex  6.632195e+03 -1.500000e+03  8.782215e+02
      vertex  6.812782e+03 -2.100000e+03  8.296990e+02
      vertex  6.558765e+03 -2.100000e+03  8.988506e+02
    endloop
  endfacet
  facet normal -2.713521e-01  1.170232e-04 -9.624801e-01
    outer loop
      vertex  6.632195e+03 -1.500000e+03  8.782215e+02
      vertex  6.558765e+03 -2.100000e+03  8.988506e+02
      vertex  6.279633e+03 -1.500000e+03  9.776192e+02
    endloop
  endfacet
  facet normal -2.945779e-01 -7.239713e-03 -9.556001e-01
    outer loop
      vertex  6.000000e+03 -2.100000e+03  1.065470e+03
      vertex  6.000000e+03 -1.500000e+03  1.060924e+03
      vertex  6.247323e+03 -2.100000e+03  9.892292e+02
    endloop
  endfacet
  facet normal -2.855073e-01 -3.169634e-03 -9.583713e-01
    outer loop
      vertex  6.247323e+03 -2.100000e+03  9.892292e+02
      vertex  6.000000e+03 -1.500000e+03  1.060924e+03
      vertex  6.279633e+03 -1.500000e+03  9.776192e+02
    endloop
  endfacet
  facet normal -2.786942e-01 -3.575261e-03 -9.603732e-01
    outer loop
      vertex  6.247323e+03 -2.100000e+03  9.892292e+02
      vertex  6.279633e+03 -1.500000e+03  9.776192e+02
      vertex  6.558765e+03 -2.100000e+03  8.988506e+02
    endloop
  endfacet
  facet normal -1.216397e-01  0.000000e+00 -9.925743e-01
    outer loop
      vertex  1.020000e+04 -1.500000e+03  1.806527e+02
      vertex  1.020000e+04 -2.100000e+03  1.806527e+02
      vertex  1.011806e+04 -1.500000e+03  1.906950e+02
    endloop
  endfacet
  facet normal -1.216377e-01  2.723460e-07 -9.925746e-01
    outer loop
      vertex  1.011806e+04 -1.500000e+03  1.906950e+02
      vertex  1.020000e+04 -2.100000e+03  1.806527e+02
      vertex  1.011811e+04 -2.100000e+03  1.906881e+02
    endloop
  endfacet
  facet normal -1.325973e-01 -7.426504e-07 -9.911700e-01
    outer loop
      vertex  1.011806e+04 -1.500000e+03  1.906950e+02
      vertex  1.011811e+04 -2.100000e+03  1.906881e+02
      vertex  9.652374e+03 -1.500000e+03  2.529932e+02
    endloop
  endfacet
  facet normal -1.325941e-01  1.778014e-06 -9.911704e-01
    outer loop
      vertex  9.652374e+03 -1.500000e+03  2.529932e+02
      vertex  1.011811e+04 -2.100000e+03  1.906881e+02
      vertex  9.652484e+03 -2.100000e+03  2.529773e+02
    endloop
  endfacet
  facet normal -1.510992e-01 -1.695437e-06 -9.885186e-01
    outer loop
      vertex  9.652374e+03 -1.500000e+03  2.529932e+02
      vertex  9.652484e+03 -2.100000e+03  2.529773e+02
      vertex  9.192988e+03 -1.500000e+03  3.232122e+02
    endloop
  endfacet
  facet normal -1.510949e-01  1.674044e-06 -9.885192e-01
    outer loop
      vertex  9.192988e+03 -1.500000e+03  3.232122e+02
      vertex  9.652484e+03 -2.100000e+03  2.529773e+02
      vertex  9.193099e+03 -2.100000e+03  3.231943e+02
    endloop
  endfacet
  facet normal -1.671563e-01 -1.357123e-06 -9.859304e-01
    outer loop
      vertex  9.192988e+03 -1.500000e+03  3.232122e+02
      vertex  9.193099e+03 -2.100000e+03  3.231943e+02
      vertex  8.849383e+03 -1.500000e+03  3.814677e+02
    endloop
  endfacet
  facet normal -1.671520e-01  1.201199e-06 -9.859311e-01
    outer loop
      vertex  8.849383e+03 -1.500000e+03  3.814677e+02
      vertex  9.193099e+03 -2.100000e+03  3.231943e+02
      vertex  8.849493e+03 -2.100000e+03  3.814482e+02
    endloop
  endfacet
  facet normal -1.808856e-01 -1.403313e-06 -9.835041e-01
    outer loop
      vertex  8.849383e+03 -1.500000e+03  3.814677e+02
      vertex  8.849493e+03 -2.100000e+03  3.814482e+02
      vertex  8.506565e+03 -1.500000e+03  4.445185e+02
    endloop
  endfacet
  facet normal -1.808810e-01  1.343130e-06 -9.835051e-01
    outer loop
      vertex  8.506565e+03 -1.500000e+03  4.445185e+02
      vertex  8.849493e+03 -2.100000e+03  3.814482e+02
      vertex  8.506675e+03 -2.100000e+03  4.444976e+02
    endloop
  endfacet
  facet normal -1.922996e-01 -8.140630e-07 -9.813363e-01
    outer loop
      vertex  8.506565e+03 -1.500000e+03  4.445185e+02
      vertex  8.506675e+03 -2.100000e+03  4.444976e+02
      vertex  8.278545e+03 -1.500000e+03  4.892007e+02
    endloop
  endfacet
  facet normal -1.922953e-01  8.838067e-07 -9.813371e-01
    outer loop
      vertex  8.278545e+03 -1.500000e+03  4.892007e+02
      vertex  8.506675e+03 -2.100000e+03  4.444976e+02
      vertex  8.278654e+03 -2.100000e+03  4.891787e+02
    endloop
  endfacet
  facet normal -2.059620e-01 -1.709223e-06 -9.785600e-01
    outer loop
      vertex  8.278545e+03 -1.500000e+03  4.892007e+02
      vertex  8.278654e+03 -2.100000e+03  4.891787e+02
      vertex  7.823806e+03 -1.500000e+03  5.849117e+02
    endloop
  endfacet
  facet normal -2.059577e-01  1.744179e-06 -9.785609e-01
    outer loop
      vertex  7.823806e+03 -1.500000e+03  5.849117e+02
      vertex  8.278654e+03 -2.100000e+03  4.891787e+02
      vertex  7.823915e+03 -2.100000e+03  5.848878e+02
    endloop
  endfacet
  facet normal -2.256248e-01 -1.998732e-06 -9.742143e-01
    outer loop
      vertex  7.823806e+03 -1.500000e+03  5.849117e+02
      vertex  7.823915e+03 -2.100000e+03  5.848878e+02
      vertex  7.295623e+03 -1.500000e+03  7.072371e+02
    endloop
  endfacet
  facet normal -2.251160e-01  4.699661e-04 -9.743319e-01
    outer loop
      vertex  7.295623e+03 -1.500000e+03  7.072371e+02
      vertex  7.823915e+03 -2.100000e+03  5.848878e+02
      vertex  7.320895e+03 -2.100000e+03  7.011088e+02
    endloop
  endfacet
  facet normal -2.458439e-01 -4.543771e-04 -9.693093e-01
    outer loop
      vertex  7.295623e+03 -1.500000e+03  7.072371e+02
      vertex  7.320895e+03 -2.100000e+03  7.011088e+02
      vertex  6.812782e+03 -1.500000e+03  8.296990e+02
    endloop
  endfacet
  facet normal -2.453397e-01  -0.000000e+00 -9.694372e-01
    outer loop
      vertex  6.812782e+03 -1.500000e+03  8.296990e+02
      vertex  7.320895e+03 -2.100000e+03  7.011088e+02
      vertex  6.812782e+03 -2.100000e+03  8.296990e+02
    endloop
  endfacet
endsolid CATIA STL
